<?xml version="1.0" encoding="UTF-8" standalone="no"?>
<!DOCTYPE svg PUBLIC "-//W3C//DTD SVG 1.1//EN" "http://www.w3.org/Graphics/SVG/1.1/DTD/svg11.dtd">
<svg width="100%" height="100%" viewBox="0 0 500 500" version="1.1" xmlns="http://www.w3.org/2000/svg" xmlns:xlink="http://www.w3.org/1999/xlink" xml:space="preserve" xmlns:serif="http://www.serif.com/" style="fill-rule:evenodd;clip-rule:evenodd;stroke-linejoin:round;stroke-miterlimit:2;">
    <g>
        <g transform="matrix(0.740297,0.672279,-0.672279,0.740297,224.475,58.3747)">
            <rect x="40" y="187.368" width="16.842" height="114.737" style="fill:rgb(85,170,109);"/>
        </g>
        <g transform="matrix(0.652174,0,0,1,-28.6499,198.947)">
            <rect x="56.842" y="109.474" width="96.842" height="11.579" style="fill:rgb(85,170,109);"/>
        </g>
        <g transform="matrix(0.636002,-0.771688,0.771688,0.636002,4.79945,261.29)">
            <rect x="101.053" y="80" width="5.263" height="26.316" style="fill:rgb(85,170,109);"/>
        </g>
    </g>
    <g>
        <g transform="matrix(-0.743103,0.669177,0.769866,0.854916,225.875,23.6023)">
            <rect x="40" y="187.368" width="16.842" height="114.737" style="fill:rgb(85,170,109);"/>
        </g>
        <g transform="matrix(-0.73913,0,0,1,519.231,200)">
            <rect x="56.842" y="109.474" width="96.842" height="11.579" style="fill:rgb(85,170,109);"/>
        </g>
        <g transform="matrix(0.774331,0.850608,-0.860348,0.783197,236.959,-104.524)">
            <rect x="263.158" y="117.895" width="4.211" height="31.579" style="fill:rgb(85,170,109);"/>
        </g>
    </g>
    <g>
        <g transform="matrix(0.244881,-0.418691,0.98968,0.578837,-108.71,182.19)">
            <path d="M184.211,192.632L213.684,309.474L154.737,309.474L184.211,192.632Z" style="fill:white;"/>
        </g>
        <g transform="matrix(0.516827,0.579488,-0.579488,0.516827,290.584,-106.667)">
            <path d="M320,161.053L345.263,398.947L294.737,398.947L320,161.053Z" style="fill:white;"/>
        </g>
    </g>
    <g transform="matrix(0.864813,0,0,0.736936,29.8633,49.2518)">
        <path d="M11.696,307.267C6.891,288.149 4.337,268.122 4.337,247.503C4.337,112.645 113.588,3.158 248.155,3.158C382.722,3.158 491.974,112.645 491.974,247.503C491.974,263.861 490.366,279.846 487.298,295.32C487.582,290.152 487.725,284.962 487.725,279.737C487.725,136.965 380.775,21.053 249.041,21.053C117.308,21.053 10.357,136.965 10.357,279.737C10.357,289.031 10.81,298.212 11.696,307.267Z" style="fill:white;"/>
    </g>
    <g transform="matrix(1,0,0,1,21.0526,-86.3158)">
        <path d="M293.515,369.474L293.515,395.17L280.618,395.17L273.721,369.474L293.515,369.474ZM322.782,369.474L315.885,395.17L300.883,395.17L300.883,369.474L322.782,369.474ZM293.515,361.053L271.461,361.053L269.72,354.567L293.515,333.64L293.515,361.053ZM300.883,361.053L300.883,331.788L326.783,354.567L325.043,361.053L300.883,361.053Z" style="fill:rgb(85,170,109);"/>
    </g>
    <g transform="matrix(0.697242,0,0,0.697242,-48.432,33.0833)">
        <path d="M293.515,369.474L293.515,395.17L280.618,395.17L273.721,369.474L293.515,369.474ZM322.782,369.474L315.885,395.17L300.883,395.17L300.883,369.474L322.782,369.474ZM293.515,361.053L271.461,361.053L269.72,354.567L293.515,333.64L293.515,361.053ZM300.883,361.053L300.883,331.788L326.783,354.567L325.043,361.053L300.883,361.053Z" style="fill:rgb(85,170,109);"/>
    </g>
    <g transform="matrix(1,0,0,1,77.8947,-207.368)">
        <path d="M201.371,361.862L140.571,407.489L167.054,442.778L144.162,459.168L104.723,299.821L201.371,361.862Z" style="fill:rgb(85,170,109);"/>
    </g>
    <path d="M244.231,217.423L238.595,221.64L250.647,237.376L256.816,232.841L244.231,217.423ZM257.148,207.758L250.262,212.91L262.886,228.377L269.817,223.28L257.148,207.758ZM270.065,198.094L263.179,203.246L275.888,218.817L282.819,213.72L270.065,198.094ZM313.003,158.869L301.033,143.24L222.676,200.857L235.138,217.127L240.634,213.015L232.715,203.313L238.639,198.671L246.664,208.503L253.551,203.351L245.719,193.757L251.644,189.114L259.581,198.839L266.467,193.687L258.724,184.2L264.648,179.558L272.498,189.175L279.384,184.022L271.729,174.643L277.653,170.001L285.415,179.51L292.436,174.257L285.817,166.149L291.741,161.506L298.466,169.745L301.246,167.665L294.011,158.618L299.765,154.016L307.149,163.249L313.003,158.869ZM282.981,188.43L276.095,193.582L288.889,209.256L295.821,204.16L282.981,188.43ZM296.033,178.665L289.012,183.917L301.891,199.696L308.958,194.5L296.033,178.665ZM304.798,172.106L302.064,174.152L315.028,190.036L317.616,188.134L304.798,172.106ZM316.459,163.382L310.701,167.69L323.557,183.765L329.003,179.76L316.459,163.382Z" style="fill:rgb(85,170,109);"/>
    <g transform="matrix(1.29593,0,0,0.972485,-185.063,57.1982)">
        <text x="164.211px" y="318.947px" style="font-family:'AgencyFB-Bold', 'Agency FB', sans-serif;font-weight:700;font-stretch:condensed;font-size:50px;fill:white;">EXLUSIVE PROJECTS</text>
    </g>
</svg>
