<?xml version="1.0" encoding="UTF-8" standalone="no"?>
<!DOCTYPE svg PUBLIC "-//W3C//DTD SVG 1.1//EN" "http://www.w3.org/Graphics/SVG/1.1/DTD/svg11.dtd">
<svg width="100%" height="100%" viewBox="0 0 500 200" version="1.1" xmlns="http://www.w3.org/2000/svg" xmlns:xlink="http://www.w3.org/1999/xlink" xml:space="preserve" xmlns:serif="http://www.serif.com/" style="fill-rule:evenodd;clip-rule:evenodd;stroke-linecap:round;stroke-linejoin:round;stroke-miterlimit:1.5;">
    <g transform="matrix(0.931502,-0.41555,0.349187,0.883803,-134.855,31.2708)">
        <path d="M183.516,103.297C197.166,103.297 224.465,103.297 238.115,114.835C251.765,126.374 251.765,149.451 238.115,172.527C228.56,189.835 203.991,207.143 183.516,218.681C163.042,207.143 138.473,189.835 128.918,172.527C115.269,149.451 115.269,126.374 128.918,114.835C142.568,103.297 169.867,103.297 183.516,103.297Z" style="fill:none;stroke:rgb(199,17,17);stroke-width:5.47px;"/>
    </g>
    <g transform="matrix(0.922038,0,0,1.0726,-29.3917,-149.803)">
        <text x="197.802px" y="263.736px" style="font-family:'AgencyFB-Bold', 'Agency FB', sans-serif;font-weight:700;font-stretch:condensed;font-size:75px;fill:rgb(199,17,17);">IFIBRE</text>
    </g>
    <g transform="matrix(0.922038,0,0,1.0726,166.161,-268.85)">
        <text x="157.143px" y="374.725px" style="font-family:'AgencyFB-Bold', 'Agency FB', sans-serif;font-weight:700;font-stretch:condensed;font-size:75px;fill:rgb(255,176,0);">YETHU</text>
    </g>
    <g transform="matrix(-0.735007,-1.45451,1.58089,-0.902009,-508.155,606.177)">
        <path d="M98.352,385.714C91.983,385.714 86.813,396.793 86.813,410.44C86.813,424.086 91.983,435.165 98.352,435.165C96.441,429.396 94.89,420.303 94.89,410.44C94.89,400.576 96.441,391.484 98.352,385.714Z" style="fill:rgb(199,17,17);"/>
    </g>
    <g transform="matrix(0.0385186,0.627589,-0.611045,0.0423453,290.27,-73.2459)">
        <path d="M225.275,361.538L176.923,361.538L189.011,328.571L213.187,328.571L225.275,361.538Z" style="fill:rgb(255,176,0);"/>
    </g>
    <g transform="matrix(-0.58053,-1.53136,2.01506,-0.862523,-687.767,599.902)">
        <path d="M98.352,385.714C91.983,385.714 86.813,396.793 86.813,410.44C86.813,424.086 91.983,435.165 98.352,435.165C96.441,429.396 94.89,420.303 94.89,410.44C94.89,400.576 96.441,391.484 98.352,385.714Z" style="fill:rgb(199,17,17);"/>
    </g>
    <g transform="matrix(-0.393054,-1.59723,1.78858,-0.496967,-612.801,469.652)">
        <path d="M98.352,385.714C91.983,385.714 86.813,396.793 86.813,410.44C86.813,424.086 91.983,435.165 98.352,435.165C96.441,429.396 94.89,420.303 94.89,410.44C94.89,400.576 96.441,391.484 98.352,385.714Z" style="fill:rgb(199,17,17);"/>
    </g>
    <g transform="matrix(0.0158644,-0.675909,0.645513,0.0171071,-125.999,277.715)">
        <path d="M225.275,361.538L176.923,361.538L189.011,328.571L213.187,328.571L225.275,361.538Z" style="fill:rgb(255,176,0);"/>
    </g>
    <g transform="matrix(0.623499,1.24145,-1.03616,0.520397,173.36,-117.875)">
        <path d="M82.095,95.171C75.739,95.171 70.579,116.643 70.579,143.091C70.579,169.538 75.739,191.01 82.095,191.01C80.188,179.829 78.64,162.206 78.64,143.091C78.64,123.975 80.188,106.352 82.095,95.171Z" style="fill:rgb(199,17,17);"/>
    </g>
</svg>
